<svg width="7" height="13" viewBox="0 0 7 13" fill="none" xmlns="http://www.w3.org/2000/svg">
<path d="M2.00408 3.84708V12.0941C2.00408 12.1811 2.03863 12.2645 2.10015 12.326C2.16166 12.3875 2.24508 12.4221 2.33208 12.4221H3.86208C3.94907 12.4221 4.03249 12.3875 4.09401 12.326C4.15552 12.2645 4.19007 12.1811 4.19007 12.0941V3.84708H5.44808C5.57766 3.84694 5.70429 3.80842 5.812 3.73639C5.91972 3.66436 6.00369 3.56205 6.05332 3.44235C6.10296 3.32265 6.11603 3.19094 6.09089 3.06382C6.06575 2.9367 6.00353 2.81988 5.91208 2.72808L3.56108 0.377081C3.43808 0.254278 3.27138 0.185303 3.09758 0.185303C2.92377 0.185303 2.75707 0.254278 2.63408 0.377081L0.283075 2.72808C0.191619 2.81988 0.129397 2.9367 0.10426 3.06382C0.0791219 3.19094 0.0921937 3.32265 0.141827 3.44235C0.19146 3.56205 0.275431 3.66436 0.383146 3.73639C0.490862 3.80842 0.617497 3.84694 0.747076 3.84708H2.00408Z" fill="#777362"/>
</svg>
