<svg width="7" height="13" viewBox="0 0 7 13" fill="none" xmlns="http://www.w3.org/2000/svg">
<path d="M4.40716 8.70303V0.432026C4.40716 0.345287 4.37291 0.262057 4.31186 0.200443C4.2508 0.138829 4.16789 0.103818 4.08116 0.103027H2.54816C2.50495 0.103027 2.46217 0.111537 2.42225 0.128071C2.38234 0.144605 2.34607 0.16884 2.31552 0.19939C2.28497 0.229941 2.26073 0.26621 2.2442 0.306126C2.22767 0.346042 2.21916 0.388821 2.21916 0.432026V8.70303H0.958156C0.828088 8.70286 0.700896 8.7413 0.592695 8.81348C0.484493 8.88566 0.40015 8.98833 0.350353 9.10849C0.300555 9.22864 0.287543 9.36088 0.312965 9.48844C0.338387 9.616 0.401098 9.73314 0.493156 9.82503L2.84915 12.181C2.97236 12.3042 3.13944 12.3734 3.31366 12.3734C3.48787 12.3734 3.65495 12.3042 3.77816 12.181L6.13415 9.82503C6.22621 9.73314 6.28893 9.616 6.31435 9.48844C6.33977 9.36088 6.32676 9.22864 6.27696 9.10849C6.22716 8.98833 6.14282 8.88566 6.03462 8.81348C5.92641 8.7413 5.79922 8.70286 5.66915 8.70303H4.40716Z" fill="#EF7A7A"/>
</svg>
