<svg width="11" height="12" viewBox="0 0 11 12" fill="none" xmlns="http://www.w3.org/2000/svg">
<path d="M0.749023 10.526C0.749023 10.8087 0.861334 11.0798 1.06125 11.2797C1.26116 11.4796 1.5323 11.592 1.81502 11.592H9.63102C9.91374 11.592 10.1849 11.4796 10.3848 11.2797C10.5847 11.0798 10.697 10.8087 10.697 10.526V4.48895H0.749023V10.526ZM2.17002 6.26595C2.17029 6.17188 2.20777 6.08174 2.27429 6.01522C2.34081 5.9487 2.43095 5.91122 2.52502 5.91095H4.65702C4.75109 5.91122 4.84124 5.9487 4.90775 6.01522C4.97427 6.08174 5.01176 6.17188 5.01202 6.26595V8.39695C5.01176 8.49102 4.97427 8.58117 4.90775 8.64768C4.84124 8.7142 4.75109 8.75169 4.65702 8.75195H2.52502C2.43095 8.75169 2.34081 8.7142 2.27429 8.64768C2.20777 8.58117 2.17029 8.49102 2.17002 8.39695V6.26595ZM9.63102 1.64695H8.56502V0.580952C8.56476 0.486881 8.52727 0.396739 8.46075 0.330221C8.39424 0.263702 8.30409 0.226216 8.21002 0.225952L7.49902 0.225952C7.40495 0.226216 7.31481 0.263702 7.24829 0.330221C7.18177 0.396739 7.14429 0.486881 7.14402 0.580952V1.64695H4.30202V0.580952C4.30176 0.487226 4.26455 0.397383 4.19846 0.330922C4.13238 0.26446 4.04275 0.226742 3.94902 0.225952L3.23602 0.225952C3.14195 0.226216 3.05181 0.263702 2.98529 0.330221C2.91877 0.396739 2.88129 0.486881 2.88102 0.580952V1.64695H1.81502C1.5323 1.64695 1.26116 1.75926 1.06125 1.95918C0.861334 2.15909 0.749023 2.43023 0.749023 2.71295L0.749023 3.77895H10.697V2.71295C10.697 2.43023 10.5847 2.15909 10.3848 1.95918C10.1849 1.75926 9.91374 1.64695 9.63102 1.64695Z" fill="#B8B8B8"/>
</svg>
