<svg width="21" height="22" viewBox="0 0 21 22" fill="none" xmlns="http://www.w3.org/2000/svg">
<path d="M10.5 0.548309C8.46464 0.548507 6.47508 1.15223 4.78287 2.28314C3.09065 3.41405 1.77178 5.02136 0.993034 6.90181C0.214286 8.78226 0.0106328 10.8514 0.407826 12.8476C0.80502 14.8438 1.78522 16.6774 3.22448 18.1165C4.66375 19.5556 6.49743 20.5356 8.49366 20.9326C10.4899 21.3296 12.559 21.1258 14.4394 20.3469C16.3198 19.5679 17.9269 18.2489 19.0577 16.5566C20.1884 14.8643 20.792 12.8746 20.792 10.8393C20.7896 8.11053 19.7045 5.4942 17.7748 3.56475C15.8452 1.6353 13.2288 0.550428 10.5 0.548309V0.548309ZM15.394 16.1623C15.3144 16.242 15.2198 16.3053 15.1158 16.3485C15.0117 16.3916 14.9001 16.4138 14.7875 16.4138C14.6748 16.4138 14.5632 16.3916 14.4592 16.3485C14.3551 16.3053 14.2606 16.242 14.181 16.1623L9.89397 11.8743C9.81425 11.7948 9.75104 11.7004 9.70796 11.5964C9.66489 11.4924 9.6428 11.3809 9.64297 11.2683V5.69431C9.65056 5.47195 9.74423 5.26124 9.90421 5.10663C10.0642 4.95202 10.278 4.8656 10.5005 4.8656C10.7229 4.8656 10.9367 4.95202 11.0967 5.10663C11.2567 5.26124 11.3504 5.47195 11.358 5.69431V10.9133L15.395 14.9483C15.4747 15.0279 15.538 15.1224 15.5811 15.2265C15.6243 15.3306 15.6465 15.4421 15.6465 15.5548C15.6465 15.6675 15.6243 15.779 15.5811 15.8831C15.538 15.9872 15.4747 16.0817 15.395 16.1613L15.394 16.1623Z" fill="#D2D2D2"/>
</svg>
