<svg width="17" height="13" viewBox="0 0 17 13" fill="none" xmlns="http://www.w3.org/2000/svg">
<path d="M0.500001 3.75002V3.25002C0.500001 3.0511 0.579018 2.86034 0.719671 2.71969C0.860323 2.57903 1.05109 2.50002 1.25 2.50002H12.5V1.00002C12.5006 0.851989 12.5449 0.70744 12.6274 0.584531C12.7099 0.461623 12.8269 0.365836 12.9637 0.309205C13.1005 0.252575 13.2509 0.237625 13.3961 0.266237C13.5414 0.294848 13.6749 0.365742 13.78 0.470014L16.28 2.97001C16.3497 3.03966 16.405 3.12237 16.4427 3.21339C16.4804 3.30442 16.4998 3.40198 16.4998 3.50052C16.4998 3.59905 16.4804 3.69661 16.4427 3.78764C16.405 3.87866 16.3497 3.96136 16.28 4.03101L13.78 6.53101C13.6749 6.63529 13.5414 6.70618 13.3961 6.73479C13.2509 6.7634 13.1005 6.74846 12.9637 6.69183C12.8269 6.6352 12.7099 6.53941 12.6274 6.4165C12.5449 6.29359 12.5006 6.14904 12.5 6.00102V4.50102H1.25C1.15143 4.50102 1.05382 4.48158 0.962757 4.44383C0.871698 4.40608 0.788974 4.35074 0.719317 4.28099C0.64966 4.21124 0.594436 4.12845 0.556804 4.03734C0.519172 3.94623 0.499869 3.84859 0.500001 3.75002ZM15.75 8.50001H4.5V7.00002C4.4994 6.85199 4.45506 6.70744 4.37256 6.58453C4.29006 6.46162 4.17308 6.36584 4.03631 6.30921C3.89954 6.25257 3.74909 6.23763 3.60385 6.26624C3.45862 6.29485 3.32507 6.36574 3.22 6.47001L0.720001 8.97301C0.650306 9.04266 0.595018 9.12536 0.557297 9.21639C0.519576 9.30742 0.500161 9.40498 0.500161 9.50351C0.500161 9.60205 0.519576 9.69961 0.557297 9.79064C0.595018 9.88166 0.650306 9.96437 0.720001 10.034L3.22 12.534C3.32513 12.639 3.45907 12.7104 3.60485 12.7392C3.75062 12.7679 3.90165 12.7527 4.03878 12.6955C4.1759 12.6383 4.29295 12.5417 4.37506 12.4179C4.45718 12.294 4.50066 12.1486 4.5 12V10.5H15.75C15.9489 10.5 16.1397 10.421 16.2803 10.2803C16.421 10.1397 16.5 9.94893 16.5 9.75001V9.25001C16.5 9.0511 16.421 8.86034 16.2803 8.71969C16.1397 8.57903 15.9489 8.50001 15.75 8.50001Z" fill="#00726E"/>
</svg>
