<svg width="18" height="28" viewBox="0 0 18 28" fill="none" xmlns="http://www.w3.org/2000/svg">
<path d="M15.613 0.54831H2.38604C1.80313 0.550155 1.24462 0.782533 0.832443 1.19471C0.420263 1.60689 0.187881 2.1654 0.186035 2.74831V7.70831C0.186035 7.85444 0.244087 7.99459 0.34742 8.09793C0.450752 8.20126 0.590903 8.25931 0.737038 8.25931H17.27C17.4162 8.25931 17.5563 8.20126 17.6597 8.09793C17.763 7.99459 17.821 7.85444 17.821 7.70831V2.74831C17.8192 2.16402 17.5857 1.6043 17.1718 1.19189C16.7579 0.779486 16.1973 0.548042 15.613 0.54831ZM6.24904 6.05931H2.93803C2.82894 6.05946 2.72227 6.02723 2.63152 5.96669C2.54076 5.90616 2.47002 5.82005 2.42825 5.71927C2.38649 5.61849 2.37557 5.50759 2.3969 5.4006C2.41822 5.29362 2.47082 5.19537 2.54803 5.11831L3.09904 4.56731C3.1761 4.4901 3.27435 4.43749 3.38133 4.41617C3.48832 4.39485 3.59922 4.40576 3.7 4.44753C3.80077 4.48929 3.88689 4.56003 3.94743 4.65079C4.00796 4.74154 4.04019 4.84822 4.04004 4.95731H6.24004C6.31505 4.95278 6.3902 4.96365 6.46086 4.98925C6.53152 5.01484 6.5962 5.05462 6.65092 5.10613C6.70564 5.15765 6.74924 5.21982 6.77905 5.28881C6.80885 5.3578 6.82422 5.43216 6.82422 5.50731C6.82422 5.58246 6.80885 5.65682 6.77905 5.72581C6.74924 5.7948 6.70564 5.85697 6.65092 5.90848C6.5962 5.96 6.53152 5.99978 6.46086 6.02537C6.3902 6.05097 6.31505 6.06183 6.24004 6.05731L6.24904 6.05931Z" fill="#00726E"/>
<path d="M17.266 9.36632H0.733009C0.586875 9.36632 0.446724 9.42436 0.343391 9.52769C0.240059 9.63103 0.182007 9.77118 0.182007 9.91731V23.6993C0.183853 24.2822 0.416227 24.8407 0.828407 25.2529C1.24059 25.6651 1.7991 25.8975 2.382 25.8993V26.4503C2.382 26.5965 2.44006 26.7366 2.54339 26.8399C2.64672 26.9433 2.78687 27.0013 2.93301 27.0013H4.033C4.17914 27.0013 4.31929 26.9433 4.42262 26.8399C4.52596 26.7366 4.58401 26.5965 4.58401 26.4503V25.8993H13.409V26.4503C13.409 26.5965 13.4671 26.7366 13.5704 26.8399C13.6737 26.9433 13.8139 27.0013 13.96 27.0013H15.06C15.2061 27.0013 15.3463 26.9433 15.4496 26.8399C15.553 26.7366 15.611 26.5965 15.611 26.4503V25.8993C16.1939 25.8975 16.7524 25.6651 17.1646 25.2529C17.5768 24.8407 17.8092 24.2822 17.811 23.6993V9.91731C17.811 9.77221 17.7538 9.63296 17.6517 9.5298C17.5497 9.42664 17.4111 9.3679 17.266 9.36632ZM6.24901 12.6733H2.938C2.82891 12.6735 2.72224 12.6412 2.63148 12.5807C2.54073 12.5202 2.46999 12.434 2.42822 12.3333C2.38646 12.2325 2.37554 12.1216 2.39687 12.0146C2.41819 11.9076 2.47079 11.8094 2.548 11.7323L3.09901 11.1813C3.17607 11.1041 3.27432 11.0515 3.3813 11.0302C3.48829 11.0088 3.59919 11.0198 3.69997 11.0615C3.80074 11.1033 3.88686 11.174 3.9474 11.2648C4.00793 11.3555 4.04016 11.4622 4.04001 11.5713H6.24001C6.31502 11.5668 6.39017 11.5776 6.46083 11.6032C6.53149 11.6288 6.59617 11.6686 6.65089 11.7201C6.7056 11.7717 6.74921 11.8338 6.77901 11.9028C6.80882 11.9718 6.82419 12.0462 6.82419 12.1213C6.82419 12.1965 6.80882 12.2708 6.77901 12.3398C6.74921 12.4088 6.7056 12.471 6.65089 12.5225C6.59617 12.574 6.53149 12.6138 6.46083 12.6394C6.39017 12.665 6.31502 12.6758 6.24001 12.6713L6.24901 12.6733Z" fill="#00726E"/>
</svg>
