<svg width="15" height="15" viewBox="0 0 15 15" fill="none" xmlns="http://www.w3.org/2000/svg">
<path d="M13.501 6.00101H9.00098V1.50101C9.00098 1.23579 8.89562 0.981436 8.70808 0.7939C8.52055 0.606363 8.26619 0.501007 8.00098 0.501007H7.00098C6.73576 0.501007 6.48141 0.606363 6.29387 0.7939C6.10633 0.981436 6.00098 1.23579 6.00098 1.50101V6.00101H1.50098C1.23576 6.00101 0.981406 6.10636 0.79387 6.2939C0.606333 6.48144 0.500977 6.73579 0.500977 7.00101L0.500977 8.00101C0.500977 8.26622 0.606333 8.52058 0.79387 8.70811C0.981406 8.89565 1.23576 9.00101 1.50098 9.00101H6.00098V13.501C6.00098 13.7662 6.10633 14.0206 6.29387 14.2081C6.48141 14.3957 6.73576 14.501 7.00098 14.501H8.00098C8.26619 14.501 8.52055 14.3957 8.70808 14.2081C8.89562 14.0206 9.00098 13.7662 9.00098 13.501V9.00101H13.501C13.7662 9.00101 14.0205 8.89565 14.2081 8.70811C14.3956 8.52058 14.501 8.26622 14.501 8.00101V7.00101C14.501 6.73579 14.3956 6.48144 14.2081 6.2939C14.0205 6.10636 13.7662 6.00101 13.501 6.00101Z" fill="#33AFAA"/>
</svg>
