<svg width="24" height="23" viewBox="0 0 24 23" fill="none" xmlns="http://www.w3.org/2000/svg">
<path d="M10.76 0.77031L7.94002 6.49231L1.62402 7.41331C1.36876 7.45085 1.12908 7.559 0.93203 7.72554C0.73498 7.89208 0.588404 8.11038 0.508847 8.35581C0.42929 8.60124 0.419922 8.86402 0.481797 9.1145C0.543672 9.36497 0.674328 9.59316 0.859017 9.77331L5.42702 14.2243L4.34602 20.5133C4.30265 20.7674 4.33119 21.0285 4.42843 21.2672C4.52566 21.5059 4.6877 21.7127 4.89625 21.8641C5.10481 22.0155 5.35156 22.1057 5.60863 22.1242C5.8657 22.1428 6.12284 22.0892 6.35102 21.9693L11.999 19.0003L17.647 21.9693C17.8753 22.0893 18.1326 22.1431 18.3898 22.1246C18.647 22.1061 18.894 22.0161 19.1027 21.8646C19.3115 21.7132 19.4737 21.5064 19.5711 21.2676C19.6685 21.0288 19.6973 20.7676 19.654 20.5133L18.574 14.2253L23.14 9.77231C23.3247 9.59216 23.4554 9.36397 23.5172 9.1135C23.5791 8.86302 23.5697 8.60024 23.4902 8.35481C23.4106 8.10938 23.2641 7.89108 23.067 7.72454C22.87 7.558 22.6303 7.44985 22.375 7.41231L16.061 6.49131L13.24 0.77031C13.1256 0.539041 12.9488 0.344359 12.7296 0.208244C12.5104 0.072129 12.2575 0 11.9995 0C11.7415 0 11.4886 0.072129 11.2694 0.208244C11.0502 0.344359 10.8734 0.539041 10.759 0.77031H10.76Z" fill="#D2D2D2"/>
</svg>
